name C:\Users\tom_v\My Drive\PostDoc\MusculoskeletalSpecialization\ResultsSprinting\Case_1\motion.mot
datacolumns 32
datarows 16
range 0.37348850 0.44818620
endheader 
time	pelvis_tilt	pelvis_list	pelvis_rotation	pelvis_tx	pelvis_ty	pelvis_tz	hip_flexion_r	hip_adduction_r	hip_rotation_r	knee_angle_r	ankle_angle_r	subtalar_angle_r	mtp_angle_r	hip_flexion_l	hip_adduction_l	hip_rotation_l	knee_angle_l	ankle_angle_l	subtalar_angle_l	mtp_angle_l	lumbar_extension	lumbar_bending	lumbar_rotation	arm_flex_r	arm_add_r	arm_rot_r	elbow_flex_r	arm_flex_l	arm_add_l	arm_rot_l	elbow_flex_l	
          0.37348850	        -10.97073908	        -10.64121419	         18.13625467	          3.01643179	          0.93324143	         -0.02960848	         57.54175371	         -6.19478255	         -9.48414874	        -54.88903587	         15.45178330	         -2.86584336	         -1.90297431	          0.73076111	         -9.70116664	          4.19860488	        -38.58021691	        -18.63172807	        -14.20448625	         -1.96296184	         -2.78814835	         10.39385742	        -18.30041163	        -69.98991828	        -41.08659431	        -10.80859209	          0.03594010	         49.99480772	          4.23341414	          5.64419984	        112.80105955	
          0.37846835	        -10.01524829	        -10.36856257	         18.99887848	          3.05557728	          0.93653950	         -0.03072729	         56.77877324	         -6.71719042	         -9.72301897	        -52.14685429	         15.98936780	         -4.01243296	         -1.86624911	         -0.39263991	        -10.22602400	          5.00747547	        -39.37553825	        -18.45611134	        -10.20700167	          0.39532429	         -4.01391784	         10.69817701	        -18.99484556	        -69.90726668	        -40.13460764	         -7.06706144	          0.14311364	         49.97381698	          3.10917506	          7.24017559	        110.24922544	
          0.38344819	         -8.96200793	         -9.98013755	         19.86777238	          3.09475638	          0.94000339	         -0.03179595	         55.67879032	         -7.22194808	         -9.91115308	        -49.21531440	         16.34530774	         -5.06005070	         -1.84510441	         -1.59049016	        -10.59985557	          5.90851297	        -40.05332560	        -18.45106845	         -8.14580529	          2.66960289	         -5.35634274	         10.97923708	        -19.53831670	        -69.80075411	        -38.61726468	         -3.75220423	          0.15971555	         49.94920181	          1.62496609	          7.96189122	        106.43867610	
          0.38842804	         -7.84068103	         -9.47227246	         20.72407764	          3.13400975	          0.94357471	         -0.03277471	         54.29476507	         -7.69248311	         -9.99782063	        -46.17816004	         16.53204138	         -6.10716201	         -1.82035807	         -2.82316762	        -10.83186020	          6.83184466	        -40.62224890	        -19.13469410	         -7.87286070	          4.35326674	         -6.78063092	         11.23388568	        -19.94052303	        -69.78772331	        -36.51730071	         -1.26748077	          0.10980357	         49.93794154	         -0.24264690	          8.04236180	        101.53000921	
          0.39340789	         -6.69569701	         -8.86473537	         21.55413476	          3.17336012	          0.94714151	         -0.03354318	         52.70897494	         -8.10162598	         -9.93519526	        -43.12094294	         16.59701393	         -7.22696743	         -1.84258571	         -4.01991837	        -10.97687961	          7.73488624	        -41.18460082	        -19.56120038	         -7.87870495	          4.98316656	         -8.24211441	         11.46413162	        -20.24017679	        -69.91952858	        -33.87172890	          0.81485179	          0.10835865	         49.95224458	         -2.73955965	          8.19000743	         96.03099157	
          0.39838773	         -5.62852041	         -8.13749049	         22.34627701	          3.21278616	          0.95055207	         -0.03394388	         51.06618396	         -8.48539118	         -9.64961134	        -40.14130182	         16.57743153	         -8.39437461	         -1.89412991	         -5.05501417	        -11.01379394	          8.59195532	        -41.81263442	        -19.37698155	         -7.24185275	          5.23171105	         -9.66007698	         11.58756105	        -20.52286396	        -69.99511063	        -30.76838918	          3.46732131	          0.01777346	         49.99397882	         -6.20425309	          9.30437823	         90.51881691	
          0.40336758	         -4.74013002	         -7.29957499	         23.05428802	          3.25231412	          0.95364323	         -0.03385203	         49.50761467	         -8.84852449	         -9.09458621	        -37.30375729	         16.51729486	         -9.53742584	         -2.18567900	         -5.82221333	        -10.92526610	          9.31725100	        -42.50054727	        -19.05302981	         -6.04925638	          5.64954077	        -10.94607758	         11.54267147	        -20.85437900	        -69.97295991	        -27.42960694	          7.21599661	          0.04461700	         49.96638865	        -10.71827029	         11.88552825	         85.60843038	
          0.40834743	         -4.04533096	         -6.44363752	         23.63701836	          3.29202934	          0.95634393	         -0.03324853	         48.06836816	         -9.11666351	         -8.34762573	        -34.59270296	         16.16660872	        -10.74008693	         -1.22162858	         -6.29521796	        -10.79913588	          9.80296122	        -43.22689584	        -18.83484836	         -4.59273348	          6.04808298	        -12.06403128	         11.39758195	        -21.25858359	        -69.85820250	        -24.09270862	         11.72349678	          0.43125052	         49.55093652	        -15.94300744	         15.39816591	         81.98380214	
          0.41332727	         -3.57213492	         -5.75152264	         24.07884397	          3.33201777	          0.95850490	         -0.03223857	         46.79618893	         -9.18157488	         -7.58836887	        -31.95249188	         15.69085582	        -11.87888739	          0.66810644	         -6.38772366	        -10.79146019	          9.99590370	        -44.02448092	        -18.52727599	         -3.01141635	          6.21972466	        -12.90631422	         11.32534941	        -21.74422386	        -69.72726379	        -20.98459263	         15.74333545	          1.53540581	         48.15231836	        -21.34230660	         18.28911350	         80.24314971	
          0.41830712	         -3.28530977	         -5.27466809	         24.34337991	          3.37232756	          0.96012795	         -0.03091945	         45.66864261	         -8.99089350	         -6.90683773	        -29.36759162	         15.28052888	        -12.85560898	          2.78606817	         -6.14747827	        -10.92652126	          9.89023097	        -44.88804745	        -18.06841618	         -1.49397506	          6.29243588	        -13.49777975	         11.38348067	        -22.26966350	        -69.63899197	        -18.25757892	         17.90968180	          3.70101615	         45.19667890	        -26.48651941	         18.92078104	         80.61406702	
          0.42328697	         -3.10805409	         -4.93895313	         24.37958028	          3.41295345	          0.96133513	         -0.02932287	         44.61262947	         -8.55395541	         -6.29180363	        -26.86133427	         14.99487642	        -13.73709122	          4.30812973	         -5.72279912	        -11.11635468	          9.51159569	        -45.78328214	        -17.54442270	         -0.18574191	          6.36502206	        -13.97464512	         11.50566860	        -22.75767156	        -69.63569075	        -15.90545636	         17.28233989	          7.10443234	         40.39996999	        -31.11582949	         16.50596283	         82.96513005	
          0.42826681	         -2.98136372	         -4.66421354	         24.17199463	          3.45381923	          0.96221187	         -0.02745847	         43.57064174	         -7.91308866	         -5.73931061	        -24.46120409	         14.68086582	        -14.73190565	          5.36225103	         -5.21681252	        -11.27952179	          8.92009929	        -46.70785394	        -16.97492466	          0.94581199	          6.39182581	        -14.45096154	         11.60758611	        -23.12674560	        -69.76349226	        -13.72251091	         13.64416294	         11.70263396	         33.96501305	        -35.15643955	         11.66377432	         86.93424578	
          0.43324666	         -2.89388023	         -4.43062662	         23.76416033	          3.49479978	          0.96275618	         -0.02539713	         42.52835076	         -7.12435773	         -5.31127153	        -22.17377132	         14.25999190	        -15.92774714	          6.06046344	         -4.61929357	        -11.39246306	          8.21533225	        -47.69960074	        -16.34924684	          2.01673036	          6.43441630	        -14.94337189	         11.65730579	        -23.33473802	        -69.96387012	        -11.42250479	          7.89086191	         17.16552926	         26.30048573	        -38.48998297	          5.36243869	         92.12175751	
          0.43822651	         -2.86165466	         -4.25619233	         23.22177677	          3.53577667	          0.96295661	         -0.02325452	         41.49256509	         -6.23524047	         -5.08446280	        -19.98456591	         13.76735314	        -17.24811909	          6.18029348	         -3.86617971	        -11.46526765	          7.49763370	        -48.79543396	        -15.67424154	          3.10524739	          6.52050810	        -15.40543387	         11.65433396	        -23.34019505	        -69.92126314	         -8.88058643	          2.02367312	         22.71267635	         18.04687070	        -40.92037324	         -1.39832803	         97.96643230	
          0.44320635	         -2.90397225	         -4.16708245	         22.60140713	          3.57668528	          0.96286464	         -0.02116475	         40.46159332	         -5.27061492	         -5.08689620	        -17.86124542	         13.55267638	        -18.43438098	          3.01666822	         -2.90319751	        -11.51575285	          6.84034407	        -50.00021090	        -14.97548159	          4.21662937	          6.59655659	        -15.77108608	         11.60650610	        -23.05928178	        -69.11303212	         -6.30660976	         -1.75407561	         27.03742446	         10.26556930	        -42.28275574	         -7.40858713	        103.53674564	
          0.44818620	         -3.02654508	         -4.18526888	         21.93649666	          3.61751379	          0.96258843	         -0.01925620	         39.41647614	         -4.23143019	         -5.31313786	        -15.74378648	         13.06392327	        -19.76624579	         -1.67153175	         -1.71828830	        -11.56244751	          6.27875646	        -51.30216441	        -13.79346978	          5.41186167	          3.33068331	        -15.99744194	         11.53433379	        -22.39925560	        -67.09001008	         -4.09194506	         -2.11243208	         28.85089369	          4.06812984	        -42.59907472	        -11.50270481	        108.16588110	
